<svg width="56" height="51" viewBox="0 0 56 51" fill="none" xmlns="http://www.w3.org/2000/svg">
<path d="M26.7055 18.8403C27.2052 18.5518 28.0155 18.5518 28.5152 18.8403L52.5062 32.6915C54.0054 33.5571 54.0054 34.9604 52.5062 35.826L28.5152 49.6772C28.0155 49.9657 27.2052 49.9657 26.7055 49.6772L2.71447 35.826C1.21528 34.9604 1.21528 33.5571 2.71447 32.6915L26.7055 18.8403Z" fill="url(#paint0_linear_8270_15344)"/>
<path d="M26.7055 9.69111C27.2052 9.40259 28.0155 9.40259 28.5152 9.69111L52.5062 23.5423C54.0054 24.4079 54.0054 25.8113 52.5062 26.6768L28.5152 40.528C28.0155 40.8166 27.2052 40.8166 26.7055 40.528L2.71447 26.6768C1.21528 25.8113 1.21528 24.4079 2.71447 23.5423L26.7055 9.69111Z" fill="url(#paint1_linear_8270_15344)"/>
<path d="M26.7055 0.522412C27.2052 0.233892 28.0155 0.233892 28.5152 0.522412L52.5062 14.3736C54.0054 15.2392 54.0054 16.6426 52.5062 17.5081L28.5152 31.3593C28.0155 31.6479 27.2052 31.6479 26.7055 31.3593L2.71447 17.5081C1.21528 16.6426 1.21528 15.2392 2.71447 14.3736L26.7055 0.522412Z" fill="url(#paint2_linear_8270_15344)"/>
<path fill-rule="evenodd" clip-rule="evenodd" d="M28.7749 11.1613C29.6169 11.3621 30.1366 12.2075 29.9358 13.0494L28.3828 19.5598C28.182 20.4018 27.3367 20.9215 26.4947 20.7207C25.6528 20.5198 25.1331 19.6745 25.3339 18.8326L26.8868 12.3221C27.0877 11.4802 27.933 10.9605 28.7749 11.1613Z" fill="white"/>
<path fill-rule="evenodd" clip-rule="evenodd" d="M22.6372 11.8116C23.2492 12.4236 23.2492 13.4159 22.6372 14.028L20.6516 16.0135L22.6372 17.9991C23.2492 18.6111 23.2492 19.6034 22.6372 20.2155C22.0251 20.8275 21.0328 20.8275 20.4208 20.2155L17.346 17.1407C17.0351 16.8299 16.8822 16.4209 16.8871 16.0135C16.8822 15.6061 17.0351 15.1972 17.346 14.8863L20.4208 11.8116C21.0328 11.1995 22.0251 11.1995 22.6372 11.8116Z" fill="white"/>
<path fill-rule="evenodd" clip-rule="evenodd" d="M32.5838 11.8116C31.9717 12.4236 31.9717 13.4159 32.5838 14.028L34.5693 16.0135L32.5838 17.9991C31.9717 18.6111 31.9717 19.6034 32.5838 20.2155C33.1958 20.8275 34.1881 20.8275 34.8002 20.2155L37.875 17.1407C38.1858 16.8299 38.3388 16.4209 38.3339 16.0135C38.3388 15.6061 38.1858 15.1972 37.875 14.8863L34.8002 11.8116C34.1881 11.1995 33.1958 11.1995 32.5838 11.8116Z" fill="white"/>
<defs>
<linearGradient id="paint0_linear_8270_15344" x1="27.6103" y1="51.5339" x2="29.7931" y2="28.5234" gradientUnits="userSpaceOnUse">
<stop stop-color="#525BFF"/>
<stop offset="1" stop-color="#3480FF"/>
</linearGradient>
<linearGradient id="paint1_linear_8270_15344" x1="29.4481" y1="44.5738" x2="37.5682" y2="23.1135" gradientUnits="userSpaceOnUse">
<stop stop-color="#BBE2FF"/>
<stop offset="1" stop-color="#EAF6FF"/>
</linearGradient>
<linearGradient id="paint2_linear_8270_15344" x1="29.5326" y1="5.10985" x2="27.6103" y2="31.8818" gradientUnits="userSpaceOnUse">
<stop stop-color="#02BEFF"/>
<stop offset="1" stop-color="#3481FF"/>
</linearGradient>
</defs>
</svg>
