<svg width="16" height="16" viewBox="0 0 16 16" fill="none" xmlns="http://www.w3.org/2000/svg">
<path d="M13.7353 5.66667V5.66667C13.7353 5.16821 13.5395 4.68971 13.19 4.33428L10.4479 1.54529C10.1049 1.19647 9.63624 1 9.14706 1V1M13.7353 5.66667H11.1471C10.0425 5.66667 9.14706 4.77124 9.14706 3.66667L9.14706 1M13.7353 5.66667V8M9.14706 1L3.5 1C2.39543 1 1.5 1.89543 1.5 3L1.5 13C1.5 14.1046 2.39543 15 3.5 15L4.55882 15" stroke="#D5FF64" stroke-width="2" stroke-linecap="round" stroke-linejoin="round"/>
<path d="M10.6761 12.6673H10.6838M6.90038 12.4995C7.22767 11.9644 8.41086 10.334 10.6761 10.334C12.9413 10.334 14.1245 11.9644 14.4518 12.4995C14.5155 12.6038 14.5155 12.7309 14.4518 12.8352C14.1245 13.3702 12.9413 15.0007 10.6761 15.0007C8.41086 15.0007 7.22767 13.3702 6.90038 12.8352C6.83659 12.7309 6.83659 12.6038 6.90038 12.4995Z" stroke="#D5FF64" stroke-width="2" stroke-linecap="round" stroke-linejoin="round"/>
</svg>
