<svg width="18" height="18" viewBox="0 0 18 18" fill="none" xmlns="http://www.w3.org/2000/svg">
<path d="M15 6.75L15 10.75C15 11.8546 14.1046 12.75 13 12.75H12M15 6.75V6.75C15 6.26978 14.8092 5.80923 14.4697 5.46967L11.7803 2.78033C11.4408 2.44077 10.9802 2.25 10.5 2.25V2.25M15 6.75H12.5C11.3954 6.75 10.5 5.85457 10.5 4.75V2.25M10.5 2.25L8 2.25C6.89543 2.25 6 3.14543 6 4.25V5.25M12 12.75L8 12.75C6.89543 12.75 6 11.8546 6 10.75L6 5.25M12 12.75V13.75C12 14.8546 11.1046 15.75 10 15.75L5 15.75C3.89543 15.75 3 14.8546 3 13.75L3 7.25C3 6.14543 3.89543 5.25 5 5.25H6" stroke="#D5FF64" stroke-width="2" stroke-linecap="round" stroke-linejoin="round"/>
</svg>
