<svg width="394" height="553" viewBox="0 0 394 553" fill="none" xmlns="http://www.w3.org/2000/svg">
<path fill-rule="evenodd" clip-rule="evenodd" d="M296.321 0.946536C306.671 0.946536 315.061 9.33671 315.061 19.6865V34.6785C315.061 45.0283 306.671 53.4185 296.321 53.4185L241.976 53.4185C231.626 53.4185 223.236 61.8087 223.236 72.1585V87.1504C223.236 97.5002 231.626 105.89 241.976 105.89L299.132 105.89C309.482 105.89 317.872 114.281 317.872 124.63V139.622C317.872 149.972 309.482 158.362 299.132 158.362H241.976C231.626 158.362 223.236 166.753 223.236 177.102V299.849C223.236 310.199 214.846 318.589 204.496 318.589H189.504C179.154 318.589 170.764 326.979 170.764 337.329V348.573C170.764 358.923 162.374 367.313 152.024 367.313H94.8678C84.518 367.313 76.1279 358.923 76.1279 348.573L76.1279 333.581C76.1279 323.231 84.518 314.841 94.8678 314.841H152.024C162.374 314.841 170.764 306.451 170.764 296.101V177.102C170.764 166.753 162.374 158.362 152.024 158.362H94.8678C84.518 158.362 76.1279 149.972 76.1279 139.622L76.1279 124.63C76.1279 114.281 84.518 105.89 94.8678 105.89L152.024 105.89C162.374 105.89 170.764 97.5003 170.764 87.1504V71.2215C170.764 60.8717 179.154 52.4815 189.504 52.4815L201.685 52.4815C212.035 52.4815 220.425 44.0913 220.425 33.7415V19.6865C220.425 9.33671 228.815 0.946533 239.165 0.946533L296.321 0.946536Z" fill="white"/>
<path fill-rule="evenodd" clip-rule="evenodd" d="M296.321 12.8189C306.671 12.8189 315.061 21.209 315.061 31.5588V46.5508C315.061 56.9006 306.671 65.2908 296.321 65.2908L241.976 65.2908C231.626 65.2908 223.236 73.681 223.236 84.0308V99.0227C223.236 109.373 231.626 117.763 241.976 117.763L299.132 117.763C309.482 117.763 317.872 126.153 317.872 136.503V151.495C317.872 161.845 309.482 170.235 299.132 170.235H241.976C231.626 170.235 223.236 178.625 223.236 188.975V311.722C223.236 322.071 214.846 330.462 204.496 330.462H189.504C179.154 330.462 170.764 338.852 170.764 349.202V360.446C170.764 370.795 162.374 379.185 152.024 379.185H94.8678C84.518 379.185 76.1279 370.795 76.1279 360.446L76.1279 345.454C76.1279 335.104 84.518 326.714 94.8678 326.714H152.024C162.374 326.714 170.764 318.323 170.764 307.974V188.975C170.764 178.625 162.374 170.235 152.024 170.235H94.8678C84.518 170.235 76.1279 161.845 76.1279 151.495L76.1279 136.503C76.1279 126.153 84.518 117.763 94.8678 117.763L152.024 117.763C162.374 117.763 170.764 109.373 170.764 99.0228V83.0938C170.764 72.744 179.154 64.3538 189.504 64.3538L201.685 64.3538C212.035 64.3538 220.425 55.9636 220.425 45.6138V31.5588C220.425 21.209 228.815 12.8188 239.165 12.8188L296.321 12.8189Z" fill="#D5FF64"/>
<path fill-rule="evenodd" clip-rule="evenodd" d="M296.321 26.3882C306.671 26.3882 315.061 34.7784 315.061 45.1282V60.1202C315.061 70.47 306.671 78.8601 296.321 78.8601L241.976 78.8601C231.626 78.8601 223.236 87.2503 223.236 97.6001V112.592C223.236 122.942 231.626 131.332 241.976 131.332L299.132 131.332C309.482 131.332 317.872 139.722 317.872 150.072V165.064C317.872 175.414 309.482 183.804 299.132 183.804H241.976C231.626 183.804 223.236 192.194 223.236 202.544V325.291C223.236 335.641 214.846 344.031 204.496 344.031H189.504C179.154 344.031 170.764 352.421 170.764 362.771V374.015C170.764 384.365 162.374 392.755 152.024 392.755H94.8678C84.518 392.755 76.1279 384.365 76.1279 374.015L76.1279 359.023C76.1279 348.673 84.518 340.283 94.8678 340.283H152.024C162.374 340.283 170.764 331.893 170.764 321.543V202.544C170.764 192.194 162.374 183.804 152.024 183.804H94.8678C84.518 183.804 76.1279 175.414 76.1279 165.064L76.1279 150.072C76.1279 139.722 84.518 131.332 94.8678 131.332L152.024 131.332C162.374 131.332 170.764 122.942 170.764 112.592V96.6631C170.764 86.3133 179.154 77.9231 189.504 77.9231L201.685 77.9231C212.035 77.9231 220.425 69.533 220.425 59.1832V45.1282C220.425 34.7784 228.815 26.3882 239.165 26.3882L296.321 26.3882Z" fill="#C1EA55"/>
<path fill-rule="evenodd" clip-rule="evenodd" d="M296.321 38.2617C306.671 38.2617 315.061 46.6519 315.061 57.0017V71.9937C315.061 82.3435 306.671 90.7337 296.321 90.7337L241.976 90.7337C231.626 90.7337 223.236 99.1238 223.236 109.474V124.466C223.236 134.815 231.626 143.206 241.976 143.206L299.132 143.206C309.482 143.206 317.872 151.596 317.872 161.946V176.938C317.872 187.287 309.482 195.678 299.132 195.678H241.976C231.626 195.678 223.236 204.068 223.236 214.418V337.164C223.236 347.514 214.846 355.904 204.496 355.904H189.504C179.154 355.904 170.764 364.295 170.764 374.644V385.888C170.764 396.238 162.374 404.628 152.024 404.628H94.8678C84.518 404.628 76.1279 396.238 76.1279 385.888L76.1279 370.896C76.1279 360.547 84.518 352.156 94.8678 352.156H152.024C162.374 352.156 170.764 343.766 170.764 333.416V214.418C170.764 204.068 162.374 195.678 152.024 195.678H94.8678C84.518 195.678 76.1279 187.287 76.1279 176.938L76.1279 161.946C76.1279 151.596 84.518 143.206 94.8678 143.206L152.024 143.206C162.374 143.206 170.764 134.815 170.764 124.466V108.537C170.764 98.1868 179.154 89.7967 189.504 89.7967L201.685 89.7967C212.035 89.7967 220.425 81.4065 220.425 71.0567V57.0017C220.425 46.6519 228.815 38.2617 239.165 38.2617L296.321 38.2617Z" fill="#ADD442"/>
<path fill-rule="evenodd" clip-rule="evenodd" d="M296.321 48.4385C306.671 48.4385 315.061 56.8287 315.061 67.1785V82.1705C315.061 92.5203 306.671 100.91 296.321 100.91L241.976 100.91C231.626 100.91 223.236 109.301 223.236 119.65V134.642C223.236 144.992 231.626 153.382 241.976 153.382L299.132 153.382C309.482 153.382 317.872 161.773 317.872 172.122V187.114C317.872 197.464 309.482 205.854 299.132 205.854H241.976C231.626 205.854 223.236 214.244 223.236 224.594V347.341C223.236 357.691 214.846 366.081 204.496 366.081H189.504C179.154 366.081 170.764 374.471 170.764 384.821V396.065C170.764 406.415 162.374 414.805 152.024 414.805H94.8678C84.518 414.805 76.1279 406.415 76.1279 396.065L76.1279 381.073C76.1279 370.723 84.518 362.333 94.8678 362.333H152.024C162.374 362.333 170.764 353.943 170.764 343.593V224.594C170.764 214.244 162.374 205.854 152.024 205.854H94.8678C84.518 205.854 76.1279 197.464 76.1279 187.114L76.1279 172.122C76.1279 161.773 84.518 153.382 94.8678 153.382L152.024 153.382C162.374 153.382 170.764 144.992 170.764 134.642V118.713C170.764 108.364 179.154 99.9734 189.504 99.9734L201.685 99.9734C212.035 99.9734 220.425 91.5833 220.425 81.2334V67.1785C220.425 56.8287 228.815 48.4385 239.165 48.4385L296.321 48.4385Z" fill="#B7006E"/>
<g clip-path="url(#clip0_7_1373)">
<path fill-rule="evenodd" clip-rule="evenodd" d="M321.142 530.293C319.589 530.293 318.33 531.544 318.33 533.086V535.321C318.33 536.863 319.589 538.114 321.142 538.114H350.397C351.951 538.114 353.21 536.863 353.21 535.321V533.086C353.21 531.544 351.951 530.293 350.397 530.293H341.817C340.264 530.293 339.005 529.043 339.005 527.5V509.207C339.005 507.664 340.264 506.414 341.817 506.414H348.709C350.262 506.414 351.522 505.163 351.522 503.621V501.386C351.522 499.844 350.262 498.593 348.709 498.593H341.677C340.123 498.593 338.864 499.844 338.864 501.386V503.621C338.864 505.163 337.605 506.414 336.051 506.414H333.942C332.388 506.414 331.128 507.664 331.128 509.207V527.5C331.128 529.043 329.869 530.293 328.315 530.293H321.142Z" fill="white"/>
<path fill-rule="evenodd" clip-rule="evenodd" d="M253.913 483.947C255.467 483.947 256.726 485.197 256.726 486.74V487.717C256.726 489.26 257.986 490.51 259.54 490.51H261.508C263.062 490.51 264.321 491.761 264.321 493.303V527.377C264.321 528.92 265.581 530.17 267.135 530.17H274.307C275.861 530.17 277.12 531.421 277.12 532.963V535.197C277.12 536.74 275.861 537.99 274.307 537.99H245.053C243.499 537.99 242.24 536.74 242.24 535.197V532.963C242.24 531.421 243.499 530.17 245.053 530.17H253.633C255.186 530.17 256.445 528.92 256.445 527.377V494.56C256.445 493.018 255.186 491.767 253.633 491.767H246.881C245.328 491.767 244.069 490.517 244.069 488.974V486.74C244.069 485.197 245.328 483.947 246.881 483.947H253.913Z" fill="white"/>
<path fill-rule="evenodd" clip-rule="evenodd" d="M383.116 498.593C384.67 498.593 385.929 499.844 385.929 501.386V503.621C385.929 505.163 387.188 506.414 388.742 506.414H390.57C392.124 506.414 393.383 507.664 393.383 509.207V519.401C393.383 520.943 392.124 522.194 390.57 522.194H385.507H371.161C369.607 522.194 368.348 523.444 368.348 524.987V527.5C368.348 529.043 369.607 530.293 371.161 530.293H390.57C392.124 530.293 393.383 531.544 393.383 533.086V535.321C393.383 536.863 392.124 538.114 390.57 538.114H370.598C369.045 538.114 367.786 536.863 367.786 535.321V533.086C367.786 531.544 366.527 530.293 364.973 530.293H363.285C361.732 530.293 360.472 529.043 360.472 527.5V506.414V501.386C360.472 499.844 361.732 498.593 363.285 498.593H368.348H383.116ZM385.507 511.581C385.507 513.123 384.247 514.373 382.694 514.373H371.161C369.607 514.373 368.348 513.123 368.348 511.581V509.207C368.348 507.664 369.607 506.414 371.161 506.414H382.694C384.247 506.414 385.507 507.664 385.507 509.207V511.581Z" fill="white"/>
<path d="M286.102 530.515C287.643 530.515 288.893 531.775 288.893 533.329V535.299C288.893 536.854 290.143 538.114 291.684 538.114H297.973C299.515 538.114 300.764 536.854 300.764 535.299V533.047C300.764 531.493 299.515 530.233 297.973 530.233H291.684C290.143 530.233 288.893 528.973 288.893 527.419V512.239H281.077V527.7C281.077 529.255 282.327 530.515 283.868 530.515H286.102Z" fill="white"/>
<path d="M288.893 520.765H281.077V509.007C281.077 507.452 282.327 506.192 283.868 506.192H286.102C287.643 506.192 288.893 504.932 288.893 503.378V501.408C288.893 499.853 290.143 498.593 291.684 498.593H297.973C299.515 498.593 300.764 499.853 300.764 501.408V503.659C300.764 505.214 299.515 506.474 297.973 506.474H291.684C290.143 506.474 288.893 507.734 288.893 509.288V520.765Z" fill="white"/>
<path d="M308.26 530.515C306.719 530.515 305.469 531.775 305.469 533.329V535.299C305.469 536.854 304.219 538.114 302.678 538.114H296.389C294.847 538.114 293.598 536.854 293.598 535.299V533.047C293.598 531.493 294.847 530.233 296.389 530.233H302.678C304.219 530.233 305.469 528.973 305.469 527.419V512.239H313.285V527.7C313.285 529.255 312.035 530.515 310.494 530.515H308.26Z" fill="white"/>
<path d="M305.469 520.765H313.285V509.007C313.285 507.452 312.035 506.192 310.494 506.192H308.26C306.719 506.192 305.469 504.932 305.469 503.378V501.408C305.469 499.853 304.219 498.593 302.678 498.593H296.389C294.847 498.593 293.598 499.853 293.598 501.408V503.659C293.598 505.214 294.847 506.474 296.389 506.474H302.678C304.219 506.474 305.469 507.734 305.469 509.288V520.765Z" fill="white"/>
<path fill-rule="evenodd" clip-rule="evenodd" d="M33.4135 483.094C34.9671 483.094 36.2264 484.344 36.2264 485.887V488.121C36.2264 489.664 34.9671 490.914 33.4135 490.914H25.2562C23.7026 490.914 22.4433 492.164 22.4433 493.707V495.941C22.4433 497.484 23.7026 498.734 25.2562 498.734H33.8355C35.389 498.734 36.6484 499.985 36.6484 501.527V503.762C36.6484 505.304 35.389 506.555 33.8355 506.555H25.2562C23.7026 506.555 22.4433 507.805 22.4433 509.347V527.641C22.4433 529.184 21.1839 530.434 19.6304 530.434H17.3801C15.8265 530.434 14.5672 531.685 14.5672 533.227V534.903C14.5672 536.446 13.3078 537.696 11.7543 537.696H3.17495C1.62143 537.696 0.362061 536.446 0.362061 534.903V532.669C0.362061 531.126 1.62144 529.876 3.17495 529.876H11.7543C13.3078 529.876 14.5672 528.625 14.5672 527.083V509.347C14.5672 507.805 13.3078 506.555 11.7543 506.555H3.17495C1.62143 506.555 0.362061 505.304 0.362061 503.762V501.527C0.362061 499.985 1.62144 498.734 3.17495 498.734H11.7543C13.3078 498.734 14.5672 497.484 14.5672 495.941V493.567C14.5672 492.025 15.8265 490.774 17.3801 490.774H19.2084C20.762 490.774 22.0213 489.524 22.0213 487.981V485.887C22.0213 484.344 23.2807 483.094 24.8342 483.094L33.4135 483.094ZM55.3541 488.4C55.3541 489.943 56.6135 491.193 58.167 491.193H60.4173C61.9708 491.193 63.2302 489.943 63.2302 488.4V486.026C63.2302 484.484 61.9708 483.233 60.4173 483.233H58.167C56.6135 483.233 55.3541 484.484 55.3541 486.026V488.4ZM91.7124 483.652C93.2662 483.652 94.5255 484.903 94.5255 486.445V487.423C94.5255 488.965 95.7848 490.216 97.3386 490.216H99.3074C100.861 490.216 102.12 491.466 102.12 493.009V527.083C102.12 528.625 103.38 529.876 104.933 529.876H112.106C113.66 529.876 114.919 531.126 114.919 532.669V534.903C114.919 536.446 113.66 537.696 112.106 537.696H82.8523C81.2984 537.696 80.0391 536.446 80.0391 534.903V532.669C80.0391 531.126 81.2984 529.876 82.8523 529.876H91.4316C92.9848 529.876 94.244 528.625 94.244 527.083V494.266C94.244 492.723 92.9848 491.473 91.4316 491.473H84.6803C83.1272 491.473 81.8672 490.222 81.8672 488.68V486.445C81.8672 484.903 83.1272 483.652 84.6803 483.652H91.7124ZM52.8225 498.176C54.376 498.176 55.6354 499.426 55.6354 500.969V503.203C55.6354 504.746 56.8948 505.996 58.4483 505.996H60.4173C61.9708 505.996 63.2302 507.246 63.2302 508.789V527.083C63.2302 528.625 64.4896 529.876 66.0432 529.876H73.2163C74.7695 529.876 76.0287 531.126 76.0287 532.669V534.903C76.0287 536.446 74.7695 537.696 73.2163 537.696H43.9619C42.4084 537.696 41.149 536.446 41.149 534.903V532.669C41.149 531.126 42.4084 529.876 43.9619 529.876H52.5412C54.0947 529.876 55.3541 528.625 55.3541 527.083V508.789C55.3541 507.246 54.0947 505.996 52.5412 505.996H45.7903C44.2368 505.996 42.9774 504.746 42.9774 503.203V500.969C42.9774 499.426 44.2368 498.176 45.7903 498.176H52.8225Z" fill="white"/>
<path d="M173.752 501.386C173.752 499.844 172.492 498.593 170.939 498.593H160.733C159.18 498.593 157.92 499.844 157.92 501.386V503.621C157.92 505.163 159.18 506.414 160.733 506.414L170.658 506.414C172.211 506.414 173.47 507.664 173.47 509.207V524.89H181.347V509.207C181.347 507.664 180.087 506.414 178.534 506.414H176.565C175.011 506.414 173.752 505.163 173.752 503.621V501.386Z" fill="white"/>
<path d="M181.464 501.386C181.464 499.844 182.723 498.593 184.277 498.593H194.479C196.032 498.593 197.291 499.844 197.291 501.386V503.621C197.291 505.163 196.032 506.414 194.479 506.414H184.559C183.005 506.414 181.746 507.664 181.746 509.207V524.89H173.87V509.207C173.87 507.664 175.129 506.414 176.682 506.414H178.652C180.205 506.414 181.464 505.163 181.464 503.621V501.386Z" fill="white"/>
<path d="M173.752 535.197C173.752 536.74 172.492 537.99 170.939 537.99H160.733C159.18 537.99 157.92 536.74 157.92 535.197V532.963C157.92 531.421 159.18 530.17 160.733 530.17L170.658 530.17C172.211 530.17 173.47 528.92 173.47 527.377V511.694H181.347V527.377C181.347 528.92 180.087 530.17 178.534 530.17H176.565C175.011 530.17 173.752 531.421 173.752 532.963V535.197Z" fill="white"/>
<path d="M181.464 535.197C181.464 536.74 182.723 537.99 184.277 537.99H194.479C196.032 537.99 197.291 536.74 197.291 535.197V532.963C197.291 531.421 196.032 530.17 194.479 530.17H184.559C183.005 530.17 181.746 528.92 181.746 527.377V511.694H173.87V527.377C173.87 528.92 175.129 530.17 176.682 530.17H178.652C180.205 530.17 181.464 531.421 181.464 532.963V535.197Z" fill="white"/>
<path d="M216.821 536.644V541.752C216.821 543.294 218.08 544.544 219.634 544.544H228.213C229.766 544.544 231.025 545.795 231.025 547.337V549.572C231.025 551.114 229.766 552.365 228.213 552.365H198.959C197.405 552.365 196.146 551.114 196.146 549.572V547.337C196.146 545.795 197.405 544.544 198.959 544.544H206.132C207.685 544.544 208.944 543.294 208.944 541.752V536.644H216.821Z" fill="white"/>
<path fill-rule="evenodd" clip-rule="evenodd" d="M238.436 501.211V519.406H238.419V522.172C238.419 523.717 237.177 524.969 235.646 524.969H233.427C231.894 524.969 230.652 526.221 230.652 527.766V529.724C230.652 531.268 229.41 532.521 227.878 532.521H219.464C218.12 532.587 217.024 533.589 216.824 534.884V538.341H208.948V533.265H208.951V508.671C209.016 507.186 210.249 506.002 211.761 506.002H213.59C215.143 506.002 216.402 504.751 216.402 503.209V501.114C216.402 499.572 217.661 498.321 219.215 498.321L235.764 498.321C237.24 498.321 238.436 499.615 238.436 501.211ZM226.769 506.153V506.17H228.205C229.591 506.326 230.669 507.511 230.669 508.95V512.831H230.652V521.892C230.652 523.437 229.41 524.689 227.878 524.689H219.392C218.084 524.592 217.025 523.607 216.826 522.339V511.256C216.825 511.227 216.824 511.198 216.824 511.169V508.934C216.824 507.392 218.084 506.141 219.637 506.141H221.301C221.383 506.149 221.467 506.153 221.552 506.153H226.769Z" fill="white"/>
<path fill-rule="evenodd" clip-rule="evenodd" d="M142.608 498.47C144.161 498.47 145.421 499.72 145.421 501.263V503.497C145.421 505.04 146.681 506.29 148.234 506.29H150.063C151.616 506.29 152.875 507.541 152.875 509.083V519.277C152.875 520.82 151.616 522.07 150.063 522.07H144.999H130.654C129.1 522.07 127.84 523.321 127.84 524.863V527.377C127.84 528.92 129.1 530.17 130.654 530.17H150.063C151.616 530.17 152.875 531.421 152.875 532.963V535.197C152.875 536.74 151.616 537.99 150.063 537.99H130.091C128.538 537.99 127.278 536.74 127.278 535.197V532.963C127.278 531.421 126.018 530.17 124.465 530.17H122.777C121.224 530.17 119.964 528.92 119.964 527.377V506.29V501.263C119.964 499.72 121.224 498.47 122.777 498.47H127.84H142.608ZM144.999 511.457C144.999 513 143.74 514.25 142.186 514.25H130.654C129.1 514.25 127.84 513 127.84 511.457V509.083C127.84 507.541 129.1 506.29 130.654 506.29H142.186C143.74 506.29 144.999 507.541 144.999 509.083V511.457Z" fill="white"/>
</g>
<defs>
<clipPath id="clip0_7_1373">
<rect width="393.75" height="70" fill="white" transform="translate(0 483)"/>
</clipPath>
</defs>
</svg>
