<svg width="155" height="31" viewBox="0 0 155 31" fill="none" xmlns="http://www.w3.org/2000/svg">
<path fill-rule="evenodd" clip-rule="evenodd" d="M6.8 0.293945C3.04446 0.293945 0 3.33841 0 7.09394V23.4939C0 27.2495 3.04447 30.2939 6.8 30.2939H23.2C26.9555 30.2939 30 27.2495 30 23.4939V7.09394C30 3.33841 26.9555 0.293945 23.2 0.293945H6.8ZM21.0372 7.23272C21.0372 6.71422 20.6207 6.29392 20.107 6.29392H17.2698C16.756 6.29392 16.3395 6.71422 16.3395 7.23272V7.9368C16.3395 8.45525 15.923 8.87554 15.4093 8.87554H14.8047C14.2909 8.87554 13.8744 9.29584 13.8744 9.81434V10.6123C13.8744 11.1308 13.4579 11.5511 12.9442 11.5511H10.107C9.59321 11.5511 9.17677 11.9714 9.17677 12.4898V13.2409C9.17677 13.7593 9.59321 14.1796 10.107 14.1796H12.9442C13.4579 14.1796 13.8744 14.5999 13.8744 15.1184V21.0796C13.8744 21.598 13.4579 22.0183 12.9442 22.0183H10.107C9.59321 22.0183 9.17677 22.4386 9.17677 22.9571V23.7081C9.17677 24.2266 9.59321 24.6469 10.107 24.6469H12.9442C13.4579 24.6469 13.8744 24.2266 13.8744 23.7081V23.1448C13.8744 22.6264 14.2909 22.2061 14.8047 22.2061H15.5488C16.0626 22.2061 16.4791 21.7858 16.4791 21.2673V15.1184C16.4791 14.5999 16.8956 14.1796 17.4093 14.1796H20.2465C20.7603 14.1796 21.1768 13.7593 21.1768 13.2409V12.4898C21.1768 11.9714 20.7603 11.5511 20.2465 11.5511H17.4093C16.8956 11.5511 16.4791 11.1308 16.4791 10.6123V9.86126C16.4791 9.34282 16.8956 8.92252 17.4093 8.92252H20.107C20.6207 8.92252 21.0372 8.50222 21.0372 7.98372V7.23272Z" fill="white"/>
<g clip-path="url(#clip0_4_1030)">
<path fill-rule="evenodd" clip-rule="evenodd" d="M131.755 21.5125C131.311 21.5125 130.951 21.8697 130.951 22.3105V22.9489C130.951 23.3896 131.311 23.7468 131.755 23.7468H140.113C140.557 23.7468 140.917 23.3896 140.917 22.9489V22.3105C140.917 21.8697 140.557 21.5125 140.113 21.5125H137.662C137.218 21.5125 136.859 21.1552 136.859 20.7145V15.4877C136.859 15.047 137.218 14.6897 137.662 14.6897H139.631C140.075 14.6897 140.435 14.3324 140.435 13.8917V13.2533C140.435 12.8126 140.075 12.4553 139.631 12.4553H137.622C137.178 12.4553 136.818 12.8126 136.818 13.2533V13.8917C136.818 14.3324 136.459 14.6897 136.015 14.6897H135.412C134.968 14.6897 134.608 15.047 134.608 15.4877V20.7145C134.608 21.1552 134.248 21.5125 133.804 21.5125H131.755Z" fill="white"/>
<path fill-rule="evenodd" clip-rule="evenodd" d="M112.547 8.27051C112.991 8.27051 113.35 8.62778 113.35 9.0685V9.34779C113.35 9.78851 113.71 10.1458 114.154 10.1458H114.717C115.161 10.1458 115.52 10.503 115.52 10.9438V20.6792C115.52 21.1199 115.88 21.4772 116.324 21.4772H118.374C118.817 21.4772 119.177 21.8345 119.177 22.2752V22.9136C119.177 23.3543 118.817 23.7116 118.374 23.7116H110.015C109.571 23.7116 109.211 23.3543 109.211 22.9136V22.2752C109.211 21.8345 109.571 21.4772 110.015 21.4772H112.466C112.91 21.4772 113.27 21.1199 113.27 20.6792V11.3029C113.27 10.8621 112.91 10.5049 112.466 10.5049H110.537C110.094 10.5049 109.734 10.1476 109.734 9.70689V9.0685C109.734 8.62778 110.094 8.27051 110.537 8.27051H112.547Z" fill="white"/>
<path fill-rule="evenodd" clip-rule="evenodd" d="M149.462 12.4553C149.906 12.4553 150.266 12.8126 150.266 13.2533V13.8917C150.266 14.3324 150.625 14.6897 151.069 14.6897H151.592C152.036 14.6897 152.395 15.047 152.395 15.4877V18.4003C152.395 18.8411 152.036 19.1983 151.592 19.1983H150.145H146.046C145.602 19.1983 145.242 19.5556 145.242 19.9963V20.7145C145.242 21.1552 145.602 21.5125 146.046 21.5125H151.592C152.036 21.5125 152.395 21.8697 152.395 22.3105V22.9489C152.395 23.3896 152.036 23.7468 151.592 23.7468H145.885C145.442 23.7468 145.082 23.3896 145.082 22.9489V22.3105C145.082 21.8697 144.722 21.5125 144.278 21.5125H143.796C143.352 21.5125 142.992 21.1552 142.992 20.7145V14.6897V13.2533C142.992 12.8126 143.352 12.4553 143.796 12.4553H145.242H149.462ZM150.145 16.166C150.145 16.6067 149.785 16.9639 149.341 16.9639H146.046C145.602 16.9639 145.242 16.6067 145.242 16.166V15.4877C145.242 15.047 145.602 14.6897 146.046 14.6897H149.341C149.785 14.6897 150.145 15.047 150.145 15.4877V16.166Z" fill="white"/>
<path d="M121.743 21.5755C122.184 21.5755 122.541 21.9355 122.541 22.3796V22.9425C122.541 23.3866 122.898 23.7466 123.338 23.7466H125.135C125.576 23.7466 125.933 23.3866 125.933 22.9425V22.2992C125.933 21.8551 125.576 21.4951 125.135 21.4951H123.338C122.898 21.4951 122.541 21.135 122.541 20.6909V16.3538H120.308V20.7713C120.308 21.2155 120.665 21.5755 121.105 21.5755H121.743Z" fill="white"/>
<path d="M122.541 18.7901H120.308V15.4306C120.308 14.9865 120.665 14.6265 121.105 14.6265H121.743C122.184 14.6265 122.541 14.2665 122.541 13.8224V13.2595C122.541 12.8153 122.898 12.4553 123.338 12.4553H125.135C125.576 12.4553 125.933 12.8153 125.933 13.2595V13.9028C125.933 14.3469 125.576 14.7069 125.135 14.7069H123.338C122.898 14.7069 122.541 15.0669 122.541 15.511V18.7901Z" fill="white"/>
<path d="M128.074 21.5755C127.634 21.5755 127.277 21.9355 127.277 22.3796V22.9425C127.277 23.3866 126.92 23.7466 126.479 23.7466H124.683C124.242 23.7466 123.885 23.3866 123.885 22.9425V22.2992C123.885 21.8551 124.242 21.4951 124.683 21.4951H126.479C126.92 21.4951 127.277 21.135 127.277 20.6909V16.3538H129.51V20.7713C129.51 21.2155 129.153 21.5755 128.713 21.5755H128.074Z" fill="white"/>
<path d="M127.277 18.7901H129.51V15.4306C129.51 14.9865 129.153 14.6265 128.713 14.6265H128.074C127.634 14.6265 127.277 14.2665 127.277 13.8224V13.2595C127.277 12.8153 126.92 12.4553 126.479 12.4553H124.683C124.242 12.4553 123.885 12.8153 123.885 13.2595V13.9028C123.885 14.3469 124.242 14.7069 124.683 14.7069H126.479C126.92 14.7069 127.277 15.0669 127.277 15.511V18.7901Z" fill="white"/>
<path fill-rule="evenodd" clip-rule="evenodd" d="M49.5467 8.02686C49.9905 8.02686 50.3504 8.38413 50.3504 8.82484V9.46323C50.3504 9.90395 49.9905 10.2612 49.5467 10.2612H47.216C46.7721 10.2612 46.4123 10.6185 46.4123 11.0592V11.6976C46.4123 12.1383 46.7721 12.4956 47.216 12.4956H49.6672C50.1111 12.4956 50.4709 12.8529 50.4709 13.2936V13.932C50.4709 14.3727 50.1111 14.7299 49.6672 14.7299H47.216C46.7721 14.7299 46.4123 15.0872 46.4123 15.5279V20.7547C46.4123 21.1955 46.0525 21.5527 45.6086 21.5527H44.9657C44.5218 21.5527 44.162 21.91 44.162 22.3507V22.8295C44.162 23.2702 43.8022 23.6275 43.3583 23.6275H40.9071C40.4632 23.6275 40.1034 23.2702 40.1034 22.8295V22.1911C40.1034 21.7504 40.4632 21.3931 40.9071 21.3931H43.3583C43.8022 21.3931 44.162 21.0359 44.162 20.5952V15.5279C44.162 15.0872 43.8022 14.7299 43.3583 14.7299H40.9071C40.4632 14.7299 40.1034 14.3727 40.1034 13.932V13.2936C40.1034 12.8529 40.4632 12.4956 40.9071 12.4956H43.3583C43.8022 12.4956 44.162 12.1383 44.162 11.6976V11.0193C44.162 10.5786 44.5218 10.2213 44.9657 10.2213H45.4881C45.9319 10.2213 46.2918 9.86405 46.2918 9.42333V8.82484C46.2918 8.38413 46.6516 8.02686 47.0954 8.02686L49.5467 8.02686ZM55.8154 9.54303C55.8154 9.98375 56.1752 10.341 56.6191 10.341H57.262C57.7059 10.341 58.0657 9.98375 58.0657 9.54303V8.86474C58.0657 8.42403 57.7059 8.06676 57.262 8.06676H56.6191C56.1752 8.06676 55.8154 8.42403 55.8154 8.86474V9.54303ZM66.2035 8.18645C66.6474 8.18645 67.0072 8.54372 67.0072 8.98444V9.26374C67.0072 9.70445 67.367 10.0617 67.811 10.0617H68.3735C68.8174 10.0617 69.1772 10.419 69.1772 10.8597V20.5952C69.1772 21.0359 69.537 21.3931 69.9808 21.3931H72.0301C72.4741 21.3931 72.8339 21.7504 72.8339 22.1911V22.8295C72.8339 23.2702 72.4741 23.6275 72.0301 23.6275H63.672C63.2281 23.6275 62.8683 23.2702 62.8683 22.8295V22.1911C62.8683 21.7504 63.2281 21.3931 63.672 21.3931H66.1233C66.567 21.3931 66.9268 21.0359 66.9268 20.5952V11.2188C66.9268 10.7781 66.567 10.4208 66.1233 10.4208H64.1943C63.7506 10.4208 63.3906 10.0635 63.3906 9.62283V8.98444C63.3906 8.54372 63.7506 8.18645 64.1943 8.18645H66.2035ZM55.0921 12.336C55.536 12.336 55.8958 12.6933 55.8958 13.134V13.7724C55.8958 14.2131 56.2556 14.5703 56.6995 14.5703H57.262C57.7059 14.5703 58.0657 14.9276 58.0657 15.3683V20.5952C58.0657 21.0359 58.4255 21.3931 58.8694 21.3931H60.9189C61.3626 21.3931 61.7224 21.7504 61.7224 22.1911V22.8295C61.7224 23.2702 61.3626 23.6275 60.9189 23.6275H52.5605C52.1166 23.6275 51.7568 23.2702 51.7568 22.8295V22.1911C51.7568 21.7504 52.1166 21.3931 52.5605 21.3931H55.0117C55.4556 21.3931 55.8154 21.0359 55.8154 20.5952V15.3683C55.8154 14.9276 55.4556 14.5703 55.0117 14.5703H53.0829C52.639 14.5703 52.2792 14.2131 52.2792 13.7724V13.134C52.2792 12.6933 52.639 12.336 53.0829 12.336H55.0921Z" fill="white"/>
<path d="M89.6434 13.2533C89.6434 12.8126 89.2837 12.4553 88.8397 12.4553H85.9239C85.4801 12.4553 85.1201 12.8126 85.1201 13.2533V13.8917C85.1201 14.3324 85.4801 14.6897 85.9239 14.6897L88.7595 14.6897C89.2032 14.6897 89.563 15.0469 89.563 15.4877V19.9686H91.8134V15.4877C91.8134 15.0469 91.4537 14.6897 91.0097 14.6897H90.4472C90.0032 14.6897 89.6434 14.3324 89.6434 13.8917V13.2533Z" fill="white"/>
<path d="M91.8468 13.2533C91.8468 12.8126 92.2066 12.4553 92.6505 12.4553H95.5653C96.0091 12.4553 96.3689 12.8126 96.3689 13.2533V13.8917C96.3689 14.3324 96.0091 14.6897 95.5653 14.6897H92.731C92.287 14.6897 91.9272 15.0469 91.9272 15.4877V19.9686H89.677V15.4877C89.677 15.0469 90.0368 14.6897 90.4805 14.6897H91.0433C91.487 14.6897 91.8468 14.3324 91.8468 13.8917V13.2533Z" fill="white"/>
<path d="M89.6434 22.9136C89.6434 23.3543 89.2837 23.7115 88.8397 23.7115H85.9239C85.4801 23.7115 85.1201 23.3543 85.1201 22.9136V22.2752C85.1201 21.8344 85.4801 21.4772 85.9239 21.4772L88.7595 21.4772C89.2032 21.4772 89.563 21.1199 89.563 20.6792V16.1982H91.8134V20.6792C91.8134 21.1199 91.4537 21.4772 91.0097 21.4772H90.4472C90.0032 21.4772 89.6434 21.8344 89.6434 22.2752V22.9136Z" fill="white"/>
<path d="M91.8468 22.9136C91.8468 23.3543 92.2066 23.7115 92.6505 23.7115H95.5653C96.0091 23.7115 96.3689 23.3543 96.3689 22.9136V22.2752C96.3689 21.8344 96.0091 21.4772 95.5653 21.4772H92.731C92.287 21.4772 91.9272 21.1199 91.9272 20.6792V16.1982H89.677V20.6792C89.677 21.1199 90.0368 21.4772 90.4805 21.4772H91.0433C91.487 21.4772 91.8468 21.8344 91.8468 22.2752V22.9136Z" fill="white"/>
<path d="M101.949 23.3267V24.7861C101.949 25.2268 102.309 25.5841 102.753 25.5841H105.204C105.648 25.5841 106.007 25.9413 106.007 26.3821V27.0205C106.007 27.4612 105.648 27.8184 105.204 27.8184H96.8455C96.4015 27.8184 96.0417 27.4612 96.0417 27.0205V26.3821C96.0417 25.9413 96.4015 25.5841 96.8455 25.5841H98.8949C99.3386 25.5841 99.6984 25.2268 99.6984 24.7861V23.3267H101.949Z" fill="white"/>
<path fill-rule="evenodd" clip-rule="evenodd" d="M108.125 13.2031V18.4017H108.12V19.192C108.12 19.6333 107.765 19.9911 107.327 19.9911H106.693C106.256 19.9911 105.901 20.3489 105.901 20.7902V21.3496C105.901 21.791 105.546 22.1488 105.108 22.1488H102.704C102.32 22.1676 102.007 22.454 101.95 22.8241V23.8117H99.6995V22.3615H99.7003V15.3347C99.7188 14.9103 100.071 14.5719 100.503 14.5719H101.026C101.469 14.5719 101.829 14.2146 101.829 13.7739V13.1754C101.829 12.7347 102.189 12.3775 102.633 12.3775L107.361 12.3774C107.783 12.3774 108.125 12.7471 108.125 13.2031ZM104.791 14.6151V14.62H105.202C105.598 14.6645 105.906 15.0031 105.906 15.4142V16.5231H105.901V19.112C105.901 19.5534 105.546 19.9112 105.108 19.9112H102.683C102.31 19.8834 102.007 19.6019 101.95 19.2396V16.073C101.95 16.0648 101.95 16.0565 101.95 16.0482V15.4098C101.95 14.9691 102.31 14.6118 102.754 14.6118H103.229C103.252 14.614 103.276 14.6151 103.301 14.6151H104.791Z" fill="white"/>
<path fill-rule="evenodd" clip-rule="evenodd" d="M80.7452 12.4199C81.1889 12.4199 81.5487 12.7772 81.5487 13.2179V13.8563C81.5487 14.297 81.9087 14.6543 82.3525 14.6543H82.875C83.3187 14.6543 83.6785 15.0116 83.6785 15.4523V18.3649C83.6785 18.8057 83.3187 19.1629 82.875 19.1629H81.4283H77.3296C76.8856 19.1629 76.5258 19.5202 76.5258 19.9609V20.6791C76.5258 21.1198 76.8856 21.4771 77.3296 21.4771H82.875C83.3187 21.4771 83.6785 21.8344 83.6785 22.2751V22.9135C83.6785 23.3542 83.3187 23.7114 82.875 23.7114H77.1687C76.725 23.7114 76.365 23.3542 76.365 22.9135V22.2751C76.365 21.8344 76.0052 21.4771 75.5614 21.4771H75.0791C74.6354 21.4771 74.2754 21.1198 74.2754 20.6791V14.6543V13.2179C74.2754 12.7772 74.6354 12.4199 75.0791 12.4199H76.5258H80.7452ZM81.4283 16.1306C81.4283 16.5713 81.0685 16.9285 80.6246 16.9285H77.3296C76.8856 16.9285 76.5258 16.5713 76.5258 16.1306V15.4523C76.5258 15.0116 76.8856 14.6543 77.3296 14.6543H80.6246C81.0685 14.6543 81.4283 15.0116 81.4283 15.4523V16.1306Z" fill="white"/>
</g>
<defs>
<clipPath id="clip0_4_1030">
<rect width="112.5" height="20" fill="white" transform="translate(40 8)"/>
</clipPath>
</defs>
</svg>
