<svg width="64" height="63" viewBox="0 0 64 63" fill="none" xmlns="http://www.w3.org/2000/svg">
<mask id="mask0_8270_15768" style="mask-type:alpha" maskUnits="userSpaceOnUse" x="0" y="0" width="64" height="63">
<rect width="64" height="63" fill="#D9D9D9"/>
</mask>
<g mask="url(#mask0_8270_15768)">
<path d="M31.2063 25.2253C31.4777 25.0653 31.9178 25.0653 32.1892 25.2253L45.2184 32.9079C46.0326 33.3879 46.0326 34.1663 45.2184 34.6464L32.1892 42.3289C31.9178 42.489 31.4777 42.489 31.2063 42.3289L18.1771 34.6464C17.363 34.1663 17.363 33.3879 18.1771 32.9079L31.2063 25.2253Z" fill="url(#paint0_linear_8270_15768)"/>
<path d="M31.2063 20.1335C31.4777 19.9735 31.9178 19.9735 32.1892 20.1335L45.2184 27.8161C46.0326 28.2961 46.0326 29.0745 45.2184 29.5546L32.1892 37.2371C31.9178 37.3972 31.4777 37.3972 31.2063 37.2371L18.1771 29.5546C17.363 29.0745 17.363 28.2961 18.1771 27.8161L31.2063 20.1335Z" fill="url(#paint1_linear_8270_15768)"/>
<path d="M31.2063 15.0554C31.4777 14.8954 31.9178 14.8954 32.1892 15.0554L45.2184 22.7379C46.0326 23.218 46.0326 23.9964 45.2184 24.4765L32.1892 32.159C31.9178 32.319 31.4777 32.319 31.2063 32.159L18.1771 24.4765C17.363 23.9964 17.363 23.218 18.1771 22.7379L31.2063 15.0554Z" fill="url(#paint2_linear_8270_15768)"/>
<path d="M48.6443 34.7605C48.9157 34.6004 49.3558 34.6004 49.6272 34.7605L62.6564 42.443C63.4705 42.9231 63.4705 43.7015 62.6563 44.1815L49.6271 51.8641C49.3557 52.0241 48.9157 52.0241 48.6443 51.8641L35.6151 44.1815C34.8009 43.7015 34.8009 42.9231 35.6151 42.443L48.6443 34.7605Z" fill="url(#paint3_linear_8270_15768)"/>
<path d="M48.6443 29.6687C48.9157 29.5086 49.3558 29.5086 49.6272 29.6687L62.6564 37.3512C63.4705 37.8313 63.4705 38.6097 62.6563 39.0897L49.6271 46.7723C49.3557 46.9323 48.9157 46.9323 48.6443 46.7723L35.6151 39.0897C34.8009 38.6097 34.8009 37.8313 35.6151 37.3512L48.6443 29.6687Z" fill="url(#paint4_linear_8270_15768)"/>
<path d="M48.6443 24.5905C48.9157 24.4305 49.3558 24.4305 49.6272 24.5905L62.6564 32.2731C63.4705 32.7532 63.4705 33.5315 62.6563 34.0116L49.6271 41.6942C49.3557 41.8542 48.9157 41.8542 48.6443 41.6942L35.6151 34.0116C34.8009 33.5315 34.8009 32.7532 35.6151 32.2731L48.6443 24.5905Z" fill="url(#paint5_linear_8270_15768)"/>
<path d="M13.8531 35.3816C14.1245 35.2215 14.5645 35.2215 14.8359 35.3816L27.8651 43.0641C28.6793 43.5442 28.6793 44.3226 27.8651 44.8026L14.8359 52.4852C14.5645 52.6452 14.1245 52.6452 13.8531 52.4852L0.82387 44.8026C0.0096787 44.3226 0.00967854 43.5442 0.823871 43.0641L13.8531 35.3816Z" fill="url(#paint6_linear_8270_15768)"/>
<path d="M13.8531 30.2898C14.1245 30.1297 14.5645 30.1297 14.8359 30.2898L27.8651 37.9723C28.6793 38.4524 28.6793 39.2308 27.8651 39.7108L14.8359 47.3934C14.5645 47.5534 14.1245 47.5534 13.8531 47.3934L0.82387 39.7108C0.0096787 39.2308 0.00967854 38.4524 0.823871 37.9723L13.8531 30.2898Z" fill="url(#paint7_linear_8270_15768)"/>
<path d="M13.8531 25.2116C14.1245 25.0516 14.5645 25.0516 14.8359 25.2116L27.8651 32.8942C28.6793 33.3743 28.6793 34.1526 27.8651 34.6327L14.8359 42.3153C14.5645 42.4753 14.1245 42.4753 13.8531 42.3153L0.82387 34.6327C0.0096787 34.1526 0.00967854 33.3743 0.823871 32.8942L13.8531 25.2116Z" fill="url(#paint8_linear_8270_15768)"/>
<path d="M31.294 45.5612C31.5654 45.4012 32.0054 45.4012 32.2768 45.5612L45.306 53.2438C46.1202 53.7239 46.1202 54.5022 45.306 54.9823L32.2768 62.6649C32.0054 62.8249 31.5654 62.8249 31.294 62.6649L18.2648 54.9823C17.4506 54.5022 17.4506 53.7239 18.2648 53.2438L31.294 45.5612Z" fill="url(#paint9_linear_8270_15768)"/>
<path d="M31.294 40.4694C31.5654 40.3094 32.0054 40.3094 32.2768 40.4694L45.306 48.152C46.1202 48.6321 46.1202 49.4104 45.306 49.8905L32.2768 57.5731C32.0054 57.7331 31.5654 57.7331 31.294 57.5731L18.2648 49.8905C17.4506 49.4104 17.4506 48.6321 18.2648 48.152L31.294 40.4694Z" fill="url(#paint10_linear_8270_15768)"/>
<path d="M31.294 35.3913C31.5654 35.2313 32.0054 35.2313 32.2768 35.3913L45.306 43.0739C46.1202 43.554 46.1202 44.3323 45.306 44.8124L32.2768 52.495C32.0054 52.655 31.5654 52.655 31.294 52.495L18.2648 44.8124C17.4506 44.3323 17.4506 43.554 18.2648 43.0739L31.294 35.3913Z" fill="url(#paint11_linear_8270_15768)"/>
<path d="M31.2471 10.6316C31.5185 10.4715 31.9585 10.4715 32.2299 10.6316L45.2591 18.3141C46.0733 18.7942 46.0733 19.5726 45.2591 20.0526L32.2299 27.7352C31.9585 27.8952 31.5185 27.8952 31.2471 27.7352L18.2179 20.0526C17.4037 19.5726 17.4037 18.7942 18.2179 18.3141L31.2471 10.6316Z" fill="url(#paint12_linear_8270_15768)"/>
<path d="M31.2471 5.53975C31.5185 5.37973 31.9585 5.37973 32.2299 5.53975L45.2591 13.2223C46.0733 13.7024 46.0733 14.4808 45.2591 14.9608L32.2299 22.6434C31.9585 22.8034 31.5185 22.8034 31.2471 22.6434L18.2179 14.9608C17.4037 14.4808 17.4037 13.7024 18.2179 13.2223L31.2471 5.53975Z" fill="url(#paint13_linear_8270_15768)"/>
<path d="M31.2471 0.46163C31.5185 0.301603 31.9585 0.301603 32.2299 0.461629L45.2591 8.14419C46.0733 8.62427 46.0733 9.40263 45.2591 9.88271L32.2299 17.5653C31.9585 17.7253 31.5185 17.7253 31.2471 17.5653L18.2179 9.88272C17.4037 9.40263 17.4037 8.62427 18.2179 8.14419L31.2471 0.46163Z" fill="url(#paint14_linear_8270_15768)"/>
<path d="M48.6958 20.1394C48.9672 19.9793 49.4073 19.9793 49.6787 20.1394L62.7079 27.8219C63.5221 28.302 63.5221 29.0804 62.7079 29.5604L49.6787 37.243C49.4073 37.403 48.9672 37.403 48.6958 37.243L35.6666 29.5604C34.8525 29.0804 34.8525 28.302 35.6666 27.8219L48.6958 20.1394Z" fill="url(#paint15_linear_8270_15768)"/>
<path d="M48.6958 15.0476C48.9672 14.8875 49.4073 14.8875 49.6787 15.0476L62.7079 22.7301C63.5221 23.2102 63.5221 23.9886 62.7079 24.4687L49.6787 32.1512C49.4073 32.3112 48.9672 32.3112 48.6958 32.1512L35.6666 24.4687C34.8525 23.9886 34.8525 23.2102 35.6666 22.7301L48.6958 15.0476Z" fill="url(#paint16_linear_8270_15768)"/>
<path d="M48.6958 9.96944C48.9672 9.80942 49.4073 9.80942 49.6787 9.96944L62.7079 17.652C63.5221 18.1321 63.5221 18.9104 62.7079 19.3905L49.6787 27.0731C49.4073 27.2331 48.9672 27.2331 48.6958 27.0731L35.6666 19.3905C34.8525 18.9104 34.8525 18.1321 35.6666 17.652L48.6958 9.96944Z" fill="url(#paint17_linear_8270_15768)"/>
<path fill-rule="evenodd" clip-rule="evenodd" d="M32.2882 40.5786C32.7454 40.69 33.0277 41.1589 32.9186 41.6258L32.0752 45.2368C31.9662 45.7038 31.5071 45.9921 31.0498 45.8807C30.5926 45.7693 30.3103 45.3004 30.4194 44.8335L31.2628 41.2225C31.3719 40.7555 31.831 40.4672 32.2882 40.5786Z" fill="white"/>
<path fill-rule="evenodd" clip-rule="evenodd" d="M28.9539 40.9382C29.2863 41.2777 29.2863 41.828 28.9539 42.1675L27.8756 43.2688L28.9539 44.3701C29.2863 44.7095 29.2863 45.2599 28.9539 45.5994C28.6215 45.9389 28.0826 45.9389 27.7502 45.5994L26.0803 43.894C25.9115 43.7216 25.8285 43.4948 25.8311 43.2688C25.8285 43.0428 25.9115 42.816 26.0803 42.6436L27.7502 40.9382C28.0826 40.5987 28.6215 40.5987 28.9539 40.9382Z" fill="white"/>
<path fill-rule="evenodd" clip-rule="evenodd" d="M34.3547 40.9382C34.0223 41.2777 34.0223 41.828 34.3547 42.1675L35.433 43.2688L34.3547 44.3701C34.0223 44.7095 34.0223 45.2599 34.3547 45.5994C34.6871 45.9389 35.226 45.9389 35.5584 45.5994L37.2282 43.894C37.3971 43.7216 37.4801 43.4948 37.4775 43.2688C37.4801 43.0428 37.3971 42.816 37.2282 42.6436L35.5584 40.9382C35.226 40.5987 34.6871 40.5987 34.3547 40.9382Z" fill="white"/>
<path d="M13.8987 20.78C14.1701 20.62 14.6101 20.62 14.8815 20.78L27.9107 28.4625C28.7249 28.9426 28.7249 29.721 27.9107 30.2011L14.8815 37.8836C14.6101 38.0436 14.1701 38.0436 13.8987 37.8836L0.869539 30.2011C0.0553486 29.721 0.0553492 28.9426 0.86954 28.4625L13.8987 20.78Z" fill="url(#paint18_linear_8270_15768)"/>
<path d="M13.8987 15.7116C14.1701 15.5516 14.6101 15.5516 14.8815 15.7116L27.9107 23.3942C28.7249 23.8743 28.7249 24.6526 27.9107 25.1327L14.8815 32.8153C14.6101 32.9753 14.1701 32.9753 13.8987 32.8153L0.869539 25.1327C0.0553486 24.6526 0.0553492 23.8743 0.86954 23.3942L13.8987 15.7116Z" fill="url(#paint19_linear_8270_15768)"/>
<path d="M13.8987 10.6218C14.1701 10.4618 14.6101 10.4618 14.8815 10.6218L27.9107 18.3043C28.7249 18.7844 28.7249 19.5628 27.9107 20.0429L14.8815 27.7254C14.6101 27.8854 14.1701 27.8854 13.8987 27.7254L0.869539 20.0429C0.0553486 19.5628 0.0553492 18.7844 0.86954 18.3043L13.8987 10.6218Z" fill="url(#paint20_linear_8270_15768)"/>
</g>
<defs>
<linearGradient id="paint0_linear_8270_15768" x1="31.6978" y1="43.3587" x2="32.9337" y2="30.6009" gradientUnits="userSpaceOnUse">
<stop stop-color="#525BFF"/>
<stop offset="1" stop-color="#3480FF"/>
</linearGradient>
<linearGradient id="paint1_linear_8270_15768" x1="32.6958" y1="39.4811" x2="37.2708" y2="27.642" gradientUnits="userSpaceOnUse">
<stop stop-color="#BBE2FF"/>
<stop offset="1" stop-color="#EAF6FF"/>
</linearGradient>
<linearGradient id="paint2_linear_8270_15768" x1="32.7417" y1="17.5998" x2="31.6531" y2="32.4455" gradientUnits="userSpaceOnUse">
<stop stop-color="#02BEFF"/>
<stop offset="1" stop-color="#3481FF"/>
</linearGradient>
<linearGradient id="paint3_linear_8270_15768" x1="49.1357" y1="52.8939" x2="50.3717" y2="40.1361" gradientUnits="userSpaceOnUse">
<stop stop-color="#525BFF"/>
<stop offset="1" stop-color="#3480FF"/>
</linearGradient>
<linearGradient id="paint4_linear_8270_15768" x1="50.1338" y1="49.0163" x2="54.7088" y2="37.1772" gradientUnits="userSpaceOnUse">
<stop stop-color="#BBE2FF"/>
<stop offset="1" stop-color="#EAF6FF"/>
</linearGradient>
<linearGradient id="paint5_linear_8270_15768" x1="50.1797" y1="27.1349" x2="49.0911" y2="41.9807" gradientUnits="userSpaceOnUse">
<stop stop-color="#02BEFF"/>
<stop offset="1" stop-color="#3481FF"/>
</linearGradient>
<linearGradient id="paint6_linear_8270_15768" x1="14.3445" y1="53.515" x2="15.5805" y2="40.7572" gradientUnits="userSpaceOnUse">
<stop stop-color="#525BFF"/>
<stop offset="1" stop-color="#3480FF"/>
</linearGradient>
<linearGradient id="paint7_linear_8270_15768" x1="15.3425" y1="49.6374" x2="19.9175" y2="37.7983" gradientUnits="userSpaceOnUse">
<stop stop-color="#BBE2FF"/>
<stop offset="1" stop-color="#EAF6FF"/>
</linearGradient>
<linearGradient id="paint8_linear_8270_15768" x1="15.3884" y1="27.756" x2="14.2998" y2="42.6017" gradientUnits="userSpaceOnUse">
<stop stop-color="#02BEFF"/>
<stop offset="1" stop-color="#3481FF"/>
</linearGradient>
<linearGradient id="paint9_linear_8270_15768" x1="31.7854" y1="63.6947" x2="33.0214" y2="50.9368" gradientUnits="userSpaceOnUse">
<stop stop-color="#525BFF"/>
<stop offset="1" stop-color="#3480FF"/>
</linearGradient>
<linearGradient id="paint10_linear_8270_15768" x1="32.7834" y1="59.817" x2="37.3585" y2="47.978" gradientUnits="userSpaceOnUse">
<stop stop-color="#BBE2FF"/>
<stop offset="1" stop-color="#EAF6FF"/>
</linearGradient>
<linearGradient id="paint11_linear_8270_15768" x1="32.8294" y1="37.9357" x2="31.7407" y2="52.7814" gradientUnits="userSpaceOnUse">
<stop stop-color="#02BEFF"/>
<stop offset="1" stop-color="#3481FF"/>
</linearGradient>
<linearGradient id="paint12_linear_8270_15768" x1="31.7385" y1="28.765" x2="32.9745" y2="16.0072" gradientUnits="userSpaceOnUse">
<stop stop-color="#525BFF"/>
<stop offset="1" stop-color="#3480FF"/>
</linearGradient>
<linearGradient id="paint13_linear_8270_15768" x1="32.7366" y1="24.8874" x2="37.3116" y2="13.0483" gradientUnits="userSpaceOnUse">
<stop stop-color="#BBE2FF"/>
<stop offset="1" stop-color="#EAF6FF"/>
</linearGradient>
<linearGradient id="paint14_linear_8270_15768" x1="32.7825" y1="3.00604" x2="31.6938" y2="17.8517" gradientUnits="userSpaceOnUse">
<stop stop-color="#02BEFF"/>
<stop offset="1" stop-color="#3481FF"/>
</linearGradient>
<linearGradient id="paint15_linear_8270_15768" x1="49.1873" y1="38.2728" x2="50.4232" y2="25.515" gradientUnits="userSpaceOnUse">
<stop stop-color="#525BFF"/>
<stop offset="1" stop-color="#3480FF"/>
</linearGradient>
<linearGradient id="paint16_linear_8270_15768" x1="50.1853" y1="34.3952" x2="54.7603" y2="22.5561" gradientUnits="userSpaceOnUse">
<stop stop-color="#BBE2FF"/>
<stop offset="1" stop-color="#EAF6FF"/>
</linearGradient>
<linearGradient id="paint17_linear_8270_15768" x1="50.2312" y1="12.5139" x2="49.1426" y2="27.3596" gradientUnits="userSpaceOnUse">
<stop stop-color="#02BEFF"/>
<stop offset="1" stop-color="#3481FF"/>
</linearGradient>
<linearGradient id="paint18_linear_8270_15768" x1="14.3901" y1="38.9134" x2="15.6261" y2="26.1556" gradientUnits="userSpaceOnUse">
<stop stop-color="#525BFF"/>
<stop offset="1" stop-color="#3480FF"/>
</linearGradient>
<linearGradient id="paint19_linear_8270_15768" x1="15.3882" y1="35.0592" x2="19.9632" y2="23.2201" gradientUnits="userSpaceOnUse">
<stop stop-color="#BBE2FF"/>
<stop offset="1" stop-color="#EAF6FF"/>
</linearGradient>
<linearGradient id="paint20_linear_8270_15768" x1="15.4341" y1="13.1662" x2="14.3455" y2="28.0119" gradientUnits="userSpaceOnUse">
<stop stop-color="#02BEFF"/>
<stop offset="1" stop-color="#3481FF"/>
</linearGradient>
</defs>
</svg>
